<svg width="16" height="16" viewBox="0 0 16 16" fill="none" xmlns="http://www.w3.org/2000/svg">
<path d="M0.5 8C0.5 5.17175 0.5 3.75725 1.379 2.879C2.258 2.00075 3.67175 2 6.5 2H9.5C12.3282 2 13.7427 2 14.621 2.879C15.4992 3.758 15.5 5.17175 15.5 8V9.5C15.5 12.3282 15.5 13.7427 14.621 14.621C13.742 15.4992 12.3282 15.5 9.5 15.5H6.5C3.67175 15.5 2.25725 15.5 1.379 14.621C0.50075 13.742 0.5 12.3282 0.5 9.5V8Z" stroke="#9B9B9B"/>
<path d="M4.25 2V0.875M11.75 2V0.875M0.875 5.75H15.125" stroke="#9B9B9B" stroke-linecap="round"/>
<path d="M12.5 11.75C12.5 11.9489 12.421 12.1397 12.2803 12.2803C12.1397 12.421 11.9489 12.5 11.75 12.5C11.5511 12.5 11.3603 12.421 11.2197 12.2803C11.079 12.1397 11 11.9489 11 11.75C11 11.5511 11.079 11.3603 11.2197 11.2197C11.3603 11.079 11.5511 11 11.75 11C11.9489 11 12.1397 11.079 12.2803 11.2197C12.421 11.3603 12.5 11.5511 12.5 11.75ZM12.5 8.75C12.5 8.94891 12.421 9.13968 12.2803 9.28033C12.1397 9.42098 11.9489 9.5 11.75 9.5C11.5511 9.5 11.3603 9.42098 11.2197 9.28033C11.079 9.13968 11 8.94891 11 8.75C11 8.55109 11.079 8.36032 11.2197 8.21967C11.3603 8.07902 11.5511 8 11.75 8C11.9489 8 12.1397 8.07902 12.2803 8.21967C12.421 8.36032 12.5 8.55109 12.5 8.75ZM8.75 11.75C8.75 11.9489 8.67098 12.1397 8.53033 12.2803C8.38968 12.421 8.19891 12.5 8 12.5C7.80109 12.5 7.61032 12.421 7.46967 12.2803C7.32902 12.1397 7.25 11.9489 7.25 11.75C7.25 11.5511 7.32902 11.3603 7.46967 11.2197C7.61032 11.079 7.80109 11 8 11C8.19891 11 8.38968 11.079 8.53033 11.2197C8.67098 11.3603 8.75 11.5511 8.75 11.75ZM8.75 8.75C8.75 8.94891 8.67098 9.13968 8.53033 9.28033C8.38968 9.42098 8.19891 9.5 8 9.5C7.80109 9.5 7.61032 9.42098 7.46967 9.28033C7.32902 9.13968 7.25 8.94891 7.25 8.75C7.25 8.55109 7.32902 8.36032 7.46967 8.21967C7.61032 8.07902 7.80109 8 8 8C8.19891 8 8.38968 8.07902 8.53033 8.21967C8.67098 8.36032 8.75 8.55109 8.75 8.75ZM5 11.75C5 11.9489 4.92098 12.1397 4.78033 12.2803C4.63968 12.421 4.44891 12.5 4.25 12.5C4.05109 12.5 3.86032 12.421 3.71967 12.2803C3.57902 12.1397 3.5 11.9489 3.5 11.75C3.5 11.5511 3.57902 11.3603 3.71967 11.2197C3.86032 11.079 4.05109 11 4.25 11C4.44891 11 4.63968 11.079 4.78033 11.2197C4.92098 11.3603 5 11.5511 5 11.75ZM5 8.75C5 8.94891 4.92098 9.13968 4.78033 9.28033C4.63968 9.42098 4.44891 9.5 4.25 9.5C4.05109 9.5 3.86032 9.42098 3.71967 9.28033C3.57902 9.13968 3.5 8.94891 3.5 8.75C3.5 8.55109 3.57902 8.36032 3.71967 8.21967C3.86032 8.07902 4.05109 8 4.25 8C4.44891 8 4.63968 8.07902 4.78033 8.21967C4.92098 8.36032 5 8.55109 5 8.75Z" fill="#9B9B9B"/>
</svg>
