<svg width="11" height="13" viewBox="0 0 11 13" fill="none" xmlns="http://www.w3.org/2000/svg">
<path d="M2.61159 4.13658C2.55369 4.75408 2.51307 5.8469 2.87768 6.31205C2.87768 6.31205 2.70604 5.11158 4.24471 3.60541C4.86424 2.99908 5.00744 2.1744 4.79112 1.55588C4.66823 1.20549 4.44377 0.916038 4.24877 0.713928C4.13502 0.5951 4.22237 0.399085 4.38791 0.406194C5.38932 0.450882 7.01229 0.729163 7.7019 2.45979C8.00455 3.21948 8.0269 4.00455 7.88268 4.80283C7.79127 5.31268 7.46627 6.44612 8.20768 6.58526C8.73682 6.68479 8.99276 6.26432 9.10752 5.96166C9.15526 5.83573 9.3208 5.80424 9.41018 5.90479C10.3039 6.92143 10.3801 8.11885 10.1953 9.14971C9.83776 11.1424 7.81971 12.5927 5.81487 12.5927C3.31033 12.5927 1.31666 11.1596 0.79971 8.56573C0.591507 7.51862 0.697132 5.44674 2.31198 3.98424C2.43182 3.87455 2.62784 3.97205 2.61159 4.13658Z" fill="url(#paint0_radial_265_935)"/>
<defs>
<radialGradient id="paint0_radial_265_935" cx="0" cy="0" r="1" gradientUnits="userSpaceOnUse" gradientTransform="translate(5.31881 12.6243) rotate(-179.751) scale(7.16906 11.763)">
<stop offset="0.314" stop-color="#FF9800"/>
<stop offset="0.662" stop-color="#FF6D00"/>
<stop offset="0.972" stop-color="#F44336"/>
</radialGradient>
</defs>
</svg>
