<svg width="34" height="34" viewBox="0 0 34 34" fill="none" xmlns="http://www.w3.org/2000/svg">
<path fill-rule="evenodd" clip-rule="evenodd" d="M22.067 9.04572H11.9334C10.3159 9.04572 9 10.3617 9 11.9791V22.1127C9 23.7301 10.3159 25.0465 11.9334 25.0465H22.067C23.6844 25.0465 25.0007 23.7305 25.0007 22.1127V11.9791C25.0007 10.3617 23.6848 9.04572 22.067 9.04572ZM16.9996 22.3134C14.0954 22.3134 11.7324 19.9505 11.7324 17.0458C11.7324 14.1416 14.0954 11.7787 16.9996 11.7787C19.9042 11.7787 22.2671 14.1416 22.2671 17.0458C22.2671 19.9501 19.9038 22.3134 16.9996 22.3134ZM21.1895 11.6215C21.1895 12.3086 21.7486 12.8677 22.4361 12.8677C23.1232 12.8677 23.6823 12.3086 23.6823 11.6215C23.6823 10.9344 23.1232 10.3752 22.4361 10.3752C21.7486 10.3752 21.1895 10.9344 21.1895 11.6215Z" fill="#9B9B9B"/>
<path d="M16.9997 14.0045C15.3232 14.0045 13.958 15.3689 13.958 17.0454C13.958 18.7227 15.3232 20.0875 16.9997 20.0875C18.6771 20.0875 20.0411 18.7227 20.0411 17.0454C20.0411 15.3693 18.6767 14.0045 16.9997 14.0045Z" fill="#9B9B9B"/>
<path fill-rule="evenodd" clip-rule="evenodd" d="M0 17C0 7.61153 7.61153 0 17 0C26.3885 0 34 7.61153 34 17C34 26.3885 26.3885 34 17 34C7.61153 34 0 26.3885 0 17ZM22.0672 27.2718C24.9123 27.2718 27.2264 24.9578 27.2264 22.1126V11.9791C27.2264 9.1343 24.9123 6.81985 22.0672 6.81985H11.9336C9.08886 6.81985 6.77441 9.1343 6.77441 11.9791V22.1126C6.77441 24.9578 9.08886 27.2718 11.9336 27.2718H22.0672Z" fill="#9B9B9B"/>
</svg>
