<svg width="34" height="34" viewBox="0 0 34 34" fill="none" xmlns="http://www.w3.org/2000/svg">
<circle cx="17" cy="17.0006" r="17" fill="#9B9B9B"/>
<path d="M24.48 12.27C21.84 8.2 16.45 6.99 12.27 9.52C8.2 12.05 6.88 17.55 9.52 21.62L9.74 21.95L8.86 25.25L12.16 24.37L12.49 24.59C13.92 25.36 15.46 25.8 17 25.8C18.65 25.8 20.3 25.36 21.73 24.48C25.8 21.84 27.01 16.45 24.48 12.27ZM22.17 20.74C21.73 21.4 21.18 21.84 20.41 21.95C19.97 21.95 19.42 22.17 17.22 21.29C15.35 20.41 13.81 18.98 12.71 17.33C12.05 16.56 11.72 15.57 11.61 14.58C11.61 13.7 11.94 12.93 12.49 12.38C12.71 12.16 12.93 12.05 13.15 12.05H13.7C13.92 12.05 14.14 12.05 14.25 12.49C14.47 13.04 15.02 14.36 15.02 14.47C15.13 14.58 15.13 14.8 15.02 14.91C15.13 15.13 15.02 15.35 14.91 15.46C14.8 15.57 14.69 15.79 14.58 15.9C14.36 16.01 14.25 16.23 14.36 16.45C14.8 17.11 15.35 17.77 15.9 18.32C16.56 18.87 17.22 19.31 17.99 19.64C18.21 19.75 18.43 19.75 18.54 19.53C18.65 19.31 19.2 18.76 19.42 18.54C19.64 18.32 19.75 18.32 19.97 18.43L21.73 19.31C21.95 19.42 22.17 19.53 22.28 19.64C22.39 19.97 22.39 20.41 22.17 20.74Z" fill="white"/>
</svg>
